<svg xmlns="http://www.w3.org/2000/svg" viewBox="0 0 900 600" role="img" aria-labelledby="title desc">
<title id="title">Cable Twist — START</title><desc id="desc">Arms long · hips face forward</desc>
<defs><marker id="arrow" markerWidth="10" markerHeight="10" refX="7" refY="3" orient="auto"><path d="M0,0 L0,6 L8,3 z" fill="#ff334f"/></marker></defs>
<style>
.body{stroke:#17212b;stroke-width:15;stroke-linecap:round;stroke-linejoin:round}.limb2{stroke:#536273;stroke-width:12;stroke-linecap:round;stroke-linejoin:round}.working{stroke:#ff334f;stroke-width:16;stroke-linecap:round;stroke-linejoin:round}.floor{stroke:#cfd7df;stroke-width:9;stroke-linecap:round}.equip{stroke:#708090;stroke-width:12;stroke-linecap:round;stroke-linejoin:round}.cable{stroke:#25a8a0;stroke-width:8;stroke-linecap:round}.label{font:800 25px system-ui,sans-serif;letter-spacing:2px;fill:#ff334f}.title{font:800 30px system-ui,sans-serif;fill:#17212b}.cue{font:600 22px system-ui,sans-serif;fill:#536273}.small{font:700 19px system-ui,sans-serif;fill:#536273}
</style>
<rect width="900" height="600" rx="28" fill="#f8fafc"/><text x="52" y="56" class="label">START</text><text x="52" y="96" class="title">Cable Twist</text><text x="52" y="570" class="cue">Arms long · hips face forward</text><line x1="75" y1="525" x2="825" y2="525" class="floor"/><line x1="120" y1="150" x2="120" y2="500" class="equip"/><circle cx="120" cy="210" r="13" fill="#25a8a0" stroke="#17212b" stroke-width="5"/><circle cx="480" cy="205" r="30" fill="#f4c9a8" stroke="#17212b" stroke-width="7"/><polygon points="430,245 525,245 548,390 412,390" fill="#8fe0da" stroke="#17212b" stroke-width="8" stroke-linejoin="round"/><line x1="425" y1="250" x2="530" y2="250" class="cable"/><line x1="420" y1="390" x2="540" y2="390" class="cable"/><line x1="440" y1="275" x2="315" y2="250" class="body"/><line x1="315" y1="250" x2="150" y2="220" class="body"/><line x1="520" y1="275" x2="390" y2="255" class="limb2"/><line x1="390" y1="255" x2="150" y2="220" class="limb2"/><line x1="150" y1="220" x2="120" y2="210" class="cable"/><circle cx="150" cy="220" r="10" fill="#25a8a0" stroke="#17212b" stroke-width="5"/><line x1="440" y1="390" x2="410" y2="510" class="body"/><line x1="520" y1="390" x2="550" y2="510" class="body"/><path d="M350 170 Q500 115 650 190" fill="none" stroke="#ff334f" stroke-width="12" stroke-linecap="round" marker-end="url(#arrow)"/></svg>