<svg xmlns="http://www.w3.org/2000/svg" viewBox="0 0 900 600" role="img" aria-labelledby="title desc">
<title id="title">Cable Twist — FINISH</title><desc id="desc">Rotate ribs; keep pelvis quiet</desc>
<defs><marker id="arrow" markerWidth="10" markerHeight="10" refX="7" refY="3" orient="auto"><path d="M0,0 L0,6 L8,3 z" fill="#ff334f"/></marker></defs>
<style>
.body{stroke:#17212b;stroke-width:15;stroke-linecap:round;stroke-linejoin:round}.limb2{stroke:#536273;stroke-width:12;stroke-linecap:round;stroke-linejoin:round}.working{stroke:#ff334f;stroke-width:16;stroke-linecap:round;stroke-linejoin:round}.floor{stroke:#cfd7df;stroke-width:9;stroke-linecap:round}.equip{stroke:#708090;stroke-width:12;stroke-linecap:round;stroke-linejoin:round}.cable{stroke:#25a8a0;stroke-width:8;stroke-linecap:round}.label{font:800 25px system-ui,sans-serif;letter-spacing:2px;fill:#ff334f}.title{font:800 30px system-ui,sans-serif;fill:#17212b}.cue{font:600 22px system-ui,sans-serif;fill:#536273}.small{font:700 19px system-ui,sans-serif;fill:#536273}
</style>
<rect width="900" height="600" rx="28" fill="#f8fafc"/><text x="52" y="56" class="label">FINISH</text><text x="52" y="96" class="title">Cable Twist</text><text x="52" y="570" class="cue">Rotate ribs; keep pelvis quiet</text><line x1="75" y1="525" x2="825" y2="525" class="floor"/><line x1="120" y1="150" x2="120" y2="500" class="equip"/><circle cx="120" cy="210" r="13" fill="#25a8a0" stroke="#17212b" stroke-width="5"/><circle cx="510" cy="205" r="30" fill="#f4c9a8" stroke="#17212b" stroke-width="7"/><polygon points="445,280 565,220 578,390 442,390" fill="#8fe0da" stroke="#17212b" stroke-width="8" stroke-linejoin="round"/><line x1="445" y1="280" x2="565" y2="220" class="cable"/><line x1="440" y1="390" x2="580" y2="390" class="cable"/><line x1="475" y1="275" x2="600" y2="245" class="body"/><line x1="600" y1="245" x2="730" y2="260" class="body"/><line x1="545" y1="255" x2="650" y2="255" class="limb2"/><line x1="650" y1="255" x2="730" y2="260" class="limb2"/><line x1="730" y1="260" x2="120" y2="210" class="cable"/><circle cx="730" cy="260" r="10" fill="#25a8a0" stroke="#17212b" stroke-width="5"/><line x1="470" y1="390" x2="440" y2="510" class="body"/><line x1="550" y1="390" x2="580" y2="510" class="body"/><path d="M360 170 Q520 95 690 190" fill="none" stroke="#ff334f" stroke-width="12" stroke-linecap="round" marker-end="url(#arrow)"/></svg>