<svg xmlns="http://www.w3.org/2000/svg" viewBox="0 0 900 600" role="img" aria-labelledby="title desc">
<title id="title">Lateral Band Walk — START</title><desc id="desc">Band at ankles · knees softly bent</desc>
<defs><marker id="arrow" markerWidth="10" markerHeight="10" refX="7" refY="3" orient="auto"><path d="M0,0 L0,6 L8,3 z" fill="#ff334f"/></marker></defs>
<style>
.body{stroke:#17212b;stroke-width:15;stroke-linecap:round;stroke-linejoin:round}.limb2{stroke:#536273;stroke-width:12;stroke-linecap:round;stroke-linejoin:round}.working{stroke:#ff334f;stroke-width:16;stroke-linecap:round;stroke-linejoin:round}.floor{stroke:#cfd7df;stroke-width:9;stroke-linecap:round}.equip{stroke:#708090;stroke-width:12;stroke-linecap:round;stroke-linejoin:round}.cable{stroke:#25a8a0;stroke-width:8;stroke-linecap:round}.label{font:800 25px system-ui,sans-serif;letter-spacing:2px;fill:#ff334f}.title{font:800 30px system-ui,sans-serif;fill:#17212b}.cue{font:600 22px system-ui,sans-serif;fill:#536273}.small{font:700 19px system-ui,sans-serif;fill:#536273}
</style>
<rect width="900" height="600" rx="28" fill="#f8fafc"/><text x="52" y="56" class="label">START</text><text x="52" y="96" class="title">Lateral Band Walk</text><text x="52" y="570" class="cue">Band at ankles · knees softly bent</text><line x1="75" y1="525" x2="825" y2="525" class="floor"/><circle cx="450" cy="170" r="30" fill="#f4c9a8" stroke="#17212b" stroke-width="7"/><polygon points="395,210 505,210 525,365 375,365" fill="#8fe0da" stroke="#17212b" stroke-width="8" stroke-linejoin="round"/><line x1="415" y1="365" x2="405" y2="440" class="body"/><line x1="405" y1="440" x2="395" y2="520" class="body"/><line x1="485" y1="365" x2="495" y2="440" class="body"/><line x1="495" y1="440" x2="505" y2="520" class="body"/><line x1="398" y1="250" x2="330" y2="350" class="limb2"/><line x1="502" y1="250" x2="570" y2="350" class="limb2"/><path d="M385 485 Q450 500 515 485" fill="none" stroke="#ff334f" stroke-width="13" stroke-linecap="round" stroke-dasharray="20 10"/><text x="535" y="490" class="small">BAND</text></svg>