<svg xmlns="http://www.w3.org/2000/svg" viewBox="0 0 900 600" role="img" aria-labelledby="title desc">
<title id="title">Lateral Band Walk — FINISH</title><desc id="desc">Take a wide side step; knees track over toes</desc>
<defs><marker id="arrow" markerWidth="10" markerHeight="10" refX="7" refY="3" orient="auto"><path d="M0,0 L0,6 L8,3 z" fill="#ff334f"/></marker></defs>
<style>
.body{stroke:#17212b;stroke-width:15;stroke-linecap:round;stroke-linejoin:round}.limb2{stroke:#536273;stroke-width:12;stroke-linecap:round;stroke-linejoin:round}.working{stroke:#ff334f;stroke-width:16;stroke-linecap:round;stroke-linejoin:round}.floor{stroke:#cfd7df;stroke-width:9;stroke-linecap:round}.equip{stroke:#708090;stroke-width:12;stroke-linecap:round;stroke-linejoin:round}.cable{stroke:#25a8a0;stroke-width:8;stroke-linecap:round}.label{font:800 25px system-ui,sans-serif;letter-spacing:2px;fill:#ff334f}.title{font:800 30px system-ui,sans-serif;fill:#17212b}.cue{font:600 22px system-ui,sans-serif;fill:#536273}.small{font:700 19px system-ui,sans-serif;fill:#536273}
</style>
<rect width="900" height="600" rx="28" fill="#f8fafc"/><text x="52" y="56" class="label">FINISH</text><text x="52" y="96" class="title">Lateral Band Walk</text><text x="52" y="570" class="cue">Take a wide side step; knees track over toes</text><line x1="75" y1="525" x2="825" y2="525" class="floor"/><circle cx="470" cy="170" r="30" fill="#f4c9a8" stroke="#17212b" stroke-width="7"/><polygon points="415,210 525,210 545,365 395,365" fill="#8fe0da" stroke="#17212b" stroke-width="8" stroke-linejoin="round"/><line x1="425" y1="365" x2="390" y2="440" class="body"/><line x1="390" y1="440" x2="340" y2="520" class="body"/><line x1="515" y1="365" x2="590" y2="430" class="body"/><line x1="590" y1="430" x2="720" y2="515" class="body"/><line x1="418" y1="250" x2="350" y2="350" class="limb2"/><line x1="522" y1="250" x2="590" y2="350" class="limb2"/><path d="M330 485 Q525 500 730 480" fill="none" stroke="#ff334f" stroke-width="13" stroke-linecap="round" stroke-dasharray="20 10"/><path d="M570 390 Q670 355 750 410" fill="none" stroke="#ff334f" stroke-width="12" stroke-linecap="round" marker-end="url(#arrow)"/></svg>