<svg xmlns="http://www.w3.org/2000/svg" viewBox="0 0 900 600" role="img" aria-labelledby="title desc">
<title id="title">Clamshell — FINISH</title><desc id="desc">Open top knee; pelvis and feet stay still</desc>
<defs><marker id="arrow" markerWidth="10" markerHeight="10" refX="7" refY="3" orient="auto"><path d="M0,0 L0,6 L8,3 z" fill="#ff334f"/></marker></defs>
<style>
.body{stroke:#17212b;stroke-width:15;stroke-linecap:round;stroke-linejoin:round}.limb2{stroke:#536273;stroke-width:12;stroke-linecap:round;stroke-linejoin:round}.working{stroke:#ff334f;stroke-width:16;stroke-linecap:round;stroke-linejoin:round}.floor{stroke:#cfd7df;stroke-width:9;stroke-linecap:round}.equip{stroke:#708090;stroke-width:12;stroke-linecap:round;stroke-linejoin:round}.cable{stroke:#25a8a0;stroke-width:8;stroke-linecap:round}.label{font:800 25px system-ui,sans-serif;letter-spacing:2px;fill:#ff334f}.title{font:800 30px system-ui,sans-serif;fill:#17212b}.cue{font:600 22px system-ui,sans-serif;fill:#536273}.small{font:700 19px system-ui,sans-serif;fill:#536273}
</style>
<rect width="900" height="600" rx="28" fill="#f8fafc"/><text x="52" y="56" class="label">FINISH</text><text x="52" y="96" class="title">Clamshell</text><text x="52" y="570" class="cue">Open top knee; pelvis and feet stay still</text><line x1="75" y1="525" x2="825" y2="525" class="floor"/><text x="650" y="180" class="small">SIDE-LYING</text><circle cx="220" cy="405" r="30" fill="#f4c9a8" stroke="#17212b" stroke-width="7"/><polygon points="255,365 455,380 455,455 250,445" fill="#8fe0da" stroke="#17212b" stroke-width="8" stroke-linejoin="round"/><line x1="450" y1="400" x2="560" y2="315" class="body"/><line x1="560" y1="315" x2="650" y2="500" class="body"/><line x1="450" y1="430" x2="565" y2="465" class="limb2"/><line x1="565" y1="465" x2="650" y2="500" class="limb2"/><circle cx="650" cy="500" r="8" fill="#f4c9a8" stroke="#17212b" stroke-width="5"/><path d="M510 365 Q555 400 585 455" fill="none" stroke="#ff334f" stroke-width="13" stroke-linecap="round" stroke-dasharray="20 10"/><path d="M560 425 Q620 370 575 300" fill="none" stroke="#ff334f" stroke-width="12" stroke-linecap="round" marker-end="url(#arrow)"/></svg>