<svg xmlns="http://www.w3.org/2000/svg" viewBox="0 0 900 600" role="img" aria-labelledby="title desc">
<title id="title">Spanish Squat — FINISH</title><desc id="desc">Sit back; torso tall, shins stay vertical</desc>
<defs><marker id="arrow" markerWidth="10" markerHeight="10" refX="7" refY="3" orient="auto"><path d="M0,0 L0,6 L8,3 z" fill="#ff334f"/></marker></defs>
<style>
.body{stroke:#17212b;stroke-width:15;stroke-linecap:round;stroke-linejoin:round}.limb2{stroke:#536273;stroke-width:12;stroke-linecap:round;stroke-linejoin:round}.working{stroke:#ff334f;stroke-width:16;stroke-linecap:round;stroke-linejoin:round}.floor{stroke:#cfd7df;stroke-width:9;stroke-linecap:round}.equip{stroke:#708090;stroke-width:12;stroke-linecap:round;stroke-linejoin:round}.cable{stroke:#25a8a0;stroke-width:8;stroke-linecap:round}.label{font:800 25px system-ui,sans-serif;letter-spacing:2px;fill:#ff334f}.title{font:800 30px system-ui,sans-serif;fill:#17212b}.cue{font:600 22px system-ui,sans-serif;fill:#536273}.small{font:700 19px system-ui,sans-serif;fill:#536273}
</style>
<rect width="900" height="600" rx="28" fill="#f8fafc"/><text x="52" y="56" class="label">FINISH</text><text x="52" y="96" class="title">Spanish Squat</text><text x="52" y="570" class="cue">Sit back; torso tall, shins stay vertical</text><line x1="75" y1="525" x2="825" y2="525" class="floor"/><line x1="120" y1="260" x2="120" y2="510" class="equip"/><circle cx="120" cy="300" r="13" fill="#25a8a0" stroke="#17212b" stroke-width="5"/><circle cx="460" cy="230" r="30" fill="#f4c9a8" stroke="#17212b" stroke-width="7"/><polygon points="405,270 510,270 505,400 375,400" fill="#8fe0da" stroke="#17212b" stroke-width="8" stroke-linejoin="round"/><line x1="400" y1="400" x2="560" y2="405" class="body"/><line x1="560" y1="405" x2="560" y2="520" class="body"/><line x1="470" y1="400" x2="650" y2="405" class="limb2"/><line x1="650" y1="405" x2="650" y2="520" class="limb2"/><path d="M120 300 L430 390 M120 300 L510 392" fill="none" stroke="#ff334f" stroke-width="13" stroke-linecap="round" stroke-dasharray="20 10"/><path d="M720 250 L720 395" fill="none" stroke="#ff334f" stroke-width="12" stroke-linecap="round" marker-end="url(#arrow)"/><path d="M560 390 L560 525 M650 390 L650 525" stroke="#25a8a0" stroke-width="5" stroke-dasharray="12 10"/><text x="535" y="365" class="small">VERTICAL SHINS</text></svg>