<svg xmlns="http://www.w3.org/2000/svg" viewBox="0 0 900 600" role="img" aria-labelledby="title desc">
<title id="title">Step-Down — START</title><desc id="desc">Stand tall on the stance leg</desc>
<defs><marker id="arrow" markerWidth="10" markerHeight="10" refX="7" refY="3" orient="auto"><path d="M0,0 L0,6 L8,3 z" fill="#ff334f"/></marker></defs>
<style>
.body{stroke:#17212b;stroke-width:15;stroke-linecap:round;stroke-linejoin:round}.limb2{stroke:#536273;stroke-width:12;stroke-linecap:round;stroke-linejoin:round}.working{stroke:#ff334f;stroke-width:16;stroke-linecap:round;stroke-linejoin:round}.floor{stroke:#cfd7df;stroke-width:9;stroke-linecap:round}.equip{stroke:#708090;stroke-width:12;stroke-linecap:round;stroke-linejoin:round}.cable{stroke:#25a8a0;stroke-width:8;stroke-linecap:round}.label{font:800 25px system-ui,sans-serif;letter-spacing:2px;fill:#ff334f}.title{font:800 30px system-ui,sans-serif;fill:#17212b}.cue{font:600 22px system-ui,sans-serif;fill:#536273}.small{font:700 19px system-ui,sans-serif;fill:#536273}
</style>
<rect width="900" height="600" rx="28" fill="#f8fafc"/><text x="52" y="56" class="label">START</text><text x="52" y="96" class="title">Step-Down</text><text x="52" y="570" class="cue">Stand tall on the stance leg</text><line x1="180" y1="405" x2="620" y2="405" class="equip"/><line x1="180" y1="405" x2="180" y2="525" class="equip"/><line x1="620" y1="405" x2="620" y2="525" class="equip"/><line x1="75" y1="525" x2="825" y2="525" class="floor"/><circle cx="430" cy="140" r="30" fill="#f4c9a8" stroke="#17212b" stroke-width="7"/><polygon points="380,180 480,180 490,330 370,330" fill="#8fe0da" stroke="#17212b" stroke-width="8" stroke-linejoin="round"/><line x1="405" y1="330" x2="405" y2="405" class="body"/><line x1="405" y1="405" x2="365" y2="405" class="body"/><line x1="465" y1="330" x2="520" y2="395" class="limb2"/><line x1="520" y1="395" x2="570" y2="445" class="limb2"/><line x1="385" y1="220" x2="330" y2="320" class="limb2"/><line x1="475" y1="220" x2="530" y2="320" class="limb2"/><text x="245" y="370" class="small">STANCE LEG →</text></svg>