<svg xmlns="http://www.w3.org/2000/svg" viewBox="0 0 900 600" role="img" aria-labelledby="title desc">
<title id="title">Step-Down — FINISH</title><desc id="desc">Bend stance knee; lower free heel slowly</desc>
<defs><marker id="arrow" markerWidth="10" markerHeight="10" refX="7" refY="3" orient="auto"><path d="M0,0 L0,6 L8,3 z" fill="#ff334f"/></marker></defs>
<style>
.body{stroke:#17212b;stroke-width:15;stroke-linecap:round;stroke-linejoin:round}.limb2{stroke:#536273;stroke-width:12;stroke-linecap:round;stroke-linejoin:round}.working{stroke:#ff334f;stroke-width:16;stroke-linecap:round;stroke-linejoin:round}.floor{stroke:#cfd7df;stroke-width:9;stroke-linecap:round}.equip{stroke:#708090;stroke-width:12;stroke-linecap:round;stroke-linejoin:round}.cable{stroke:#25a8a0;stroke-width:8;stroke-linecap:round}.label{font:800 25px system-ui,sans-serif;letter-spacing:2px;fill:#ff334f}.title{font:800 30px system-ui,sans-serif;fill:#17212b}.cue{font:600 22px system-ui,sans-serif;fill:#536273}.small{font:700 19px system-ui,sans-serif;fill:#536273}
</style>
<rect width="900" height="600" rx="28" fill="#f8fafc"/><text x="52" y="56" class="label">FINISH</text><text x="52" y="96" class="title">Step-Down</text><text x="52" y="570" class="cue">Bend stance knee; lower free heel slowly</text><line x1="180" y1="405" x2="620" y2="405" class="equip"/><line x1="180" y1="405" x2="180" y2="525" class="equip"/><line x1="620" y1="405" x2="620" y2="525" class="equip"/><line x1="75" y1="525" x2="825" y2="525" class="floor"/><circle cx="410" cy="190" r="30" fill="#f4c9a8" stroke="#17212b" stroke-width="7"/><polygon points="360,230 460,230 480,365 350,365" fill="#8fe0da" stroke="#17212b" stroke-width="8" stroke-linejoin="round"/><line x1="385" y1="365" x2="455" y2="405" class="body"/><line x1="455" y1="405" x2="410" y2="405" class="body"/><line x1="445" y1="365" x2="530" y2="430" class="limb2"/><line x1="530" y1="430" x2="560" y2="520" class="limb2"/><line x1="365" y1="270" x2="320" y2="355" class="limb2"/><line x1="455" y1="270" x2="510" y2="355" class="limb2"/><path d="M650 340 L650 500" fill="none" stroke="#ff334f" stroke-width="12" stroke-linecap="round" marker-end="url(#arrow)"/><text x="245" y="370" class="small">STANCE LEG →</text></svg>